<?xml version="1.0" encoding="utf-8"?>
<!-- Generator: Adobe Illustrator 16.0.0, SVG Export Plug-In . SVG Version: 6.00 Build 0)  -->
<!DOCTYPE svg PUBLIC "-//W3C//DTD SVG 1.1//EN" "http://www.w3.org/Graphics/SVG/1.1/DTD/svg11.dtd">
<svg version="1.1" xmlns="http://www.w3.org/2000/svg" xmlns:xlink="http://www.w3.org/1999/xlink" x="0px" y="0px" width="864px"
	 height="864px" viewBox="0 0 864 864" enable-background="new 0 0 864 864" xml:space="preserve">
<g id="Layer_5">
	<path fill="#A7A9AC" d="M257.538,752.168l-57.229-425.736h-13.19l-1.965-0.89c-11.346-5.134-18.12-14.261-18.12-24.414v-1.015
		c0-12.265,9.978-22.243,22.243-22.243l12.86-0.116c-0.179-9.946,3.88-19.9,11.655-27.263c5.872-5.562,13.208-9.011,21.006-9.946
		c1.932-4.911,4.928-9.384,8.8-13.052c6.755-6.396,15.595-9.918,24.894-9.918c6.121,0,12.12,1.575,17.417,4.476
		c-0.371-9.396,2.961-19.065,10.025-26.606c5.492-5.862,12.686-9.765,20.372-11.176c1.635-5.02,4.359-9.668,8.008-13.563
		c6.513-6.952,15.594-11.072,25.09-11.424c-3.971-8.46-3.874-18.769,1.161-27.621c5.354-9.416,15.301-15.264,25.957-15.264
		c1.481,0,2.957,0.116,4.414,0.343c5.39-6.763,13.7-10.822,22.583-10.822c5.083,0,10.122,1.338,14.573,3.87
		c3.081,1.752,5.744,3.985,7.931,6.56c4.042-15.581,18.227-27.12,35.055-27.12c16.257,0,30.103,10.845,34.637,25.679
		c17.562,1.818,31.321,17.283,31.321,36.03c0,3.753-0.556,7.442-1.625,10.952c2.595,0.125,5.169,0.552,7.674,1.274
		c3.095,0.893,6.018,2.213,8.702,3.92c5.926-4.255,13.026-6.644,20.259-6.644c3.145,0,6.277,0.443,9.311,1.318
		c18.432,5.316,28.927,25.249,23.395,44.432c-2.254,7.818-6.849,14.507-13.048,19.229c0.017,0.105,0.032,0.21,0.049,0.315
		c6.046-4.211,13.264-6.498,20.683-6.498c10.55,0,20.55,4.579,27.435,12.563c10.615,12.312,11.444,29.879,3.172,43
		c0.65,0.933,1.251,1.896,1.801,2.887l30.097,0.186c12.203,0,22.182,9.978,22.182,22.243v1.015c0,12.266-9.979,22.244-22.243,22.244
		h-4.905l-63.473,428.795H257.538z"/>
</g>
<g id="Layer_2">
	<polygon fill="#ED1C24" points="269.278,733.111 584.556,733.111 647.056,310.889 212.333,309.5 	"/>
</g>
<g id="Layer_3">
	<path fill="#FFFFFF" d="M660.054,287.722H193.78c-6.629,0-12.002,5.374-12.002,12.002v0.995c0,6.629,5.374,12.002,12.002,15.002
		h63.023l42.537,417.551h52.98l-39.962-417.551h84.695l7.3,417.867l49.196-0.315l-0.939-418.551l94.272-2l-46.976,420.236
		l52.034,0.315l49.28-420.551h58.831c6.628,0,12.002-5.374,12.002-12.002v-0.995C672.056,293.096,666.682,287.722,660.054,287.722z"
		/>
</g>
<g id="Layer_4">
	<g>
		<path fill="none" d="M518.708,225.109c-1.604-0.111-3.219-0.391-4.819-0.853c-1.021-0.294-2.002-0.661-2.949-1.08
			c3.29,6.472,2.431,14.354-2.726,19.511c-2.359,2.36-5.292,3.818-8.397,4.396c1.987,4.556,1.979,9.686-0.047,14.034
			c4.647-6.619,12.334-10.95,21.037-10.95c1.673,0,3.306,0.165,4.889,0.47C519.052,244.279,516.051,234.561,518.708,225.109z"/>
		<path fill="none" d="M391.641,278.497c0.68,3.033,0.807,6.074,0.453,9.003h0.747c1.042-1.819,2.312-3.485,3.782-4.959
			C394.776,281.392,393.113,280.022,391.641,278.497z"/>
		<path fill="none" d="M329.311,244.353c1.333-0.073,2.66-0.044,3.969,0.088c-0.141-0.489-0.271-0.981-0.381-1.478
			C331.729,243.52,330.529,243.98,329.311,244.353z"/>
		<path fill="none" d="M354.891,261.321c0.015-0.009,0.03-0.017,0.045-0.026c-0.019,0-0.038-0.002-0.056-0.003
			C354.883,261.302,354.887,261.311,354.891,261.321z"/>
		<path fill="#FFFFFF" d="M391.758,289.62c0.323-0.729,0.69-1.434,1.083-2.12h-0.747
			C392.008,288.213,391.901,288.922,391.758,289.62z"/>
		<path fill="#FDEBA9" d="M430.833,165.194c0,14.19,10.882,25.694,24.306,25.694c10.126,0,18.802-6.547,22.456-15.854
			c3.804,2.61,8.338,4.132,13.211,4.132c13.423,0,24.305-11.504,24.305-25.694s-10.882-25.694-24.305-25.694
			c-1.666,0-3.294,0.178-4.866,0.516c-0.096-14.108-11.559-25.516-25.689-25.516c-14.19,0-25.694,11.504-25.694,25.694
			c0,6.189,2.189,11.867,5.835,16.303C434.583,149.47,430.833,156.868,430.833,165.194z"/>
		<path fill="#FDEBA9" d="M292.959,276.013c-1.146-1.209-2.395-2.269-3.721-3.178c10.178-9.77,10.579-25.938,0.863-36.198
			c-9.757-10.304-26.02-10.747-36.324-0.989c-4.494,4.256-7.111,9.75-7.826,15.447c-7.402-0.989-15.352,1.375-21.397,7.1
			c-8.381,7.937-10.52,19.879-6.059,29.305h80.381C298.038,283.291,296.077,279.306,292.959,276.013z"/>
		<path fill="#FDEBA9" d="M619.326,278.619c-1.088-1.262-2.286-2.378-3.568-3.349c10.622-9.285,11.776-25.417,2.549-36.118
			c-9.268-10.747-25.492-11.947-36.238-2.68c-4.688,4.042-7.559,9.408-8.537,15.065c-7.348-1.333-15.399,0.659-21.705,6.096
			c-3.07,2.648-5.392,5.826-6.941,9.251c-1.371-3.678-3.565-6.953-6.352-9.612c12.929,2.531,25.875-5.198,29.595-18.096
			c1.716-5.947,1.186-12.009-1.088-17.281c6.881-2.901,12.534-8.971,14.841-16.971c3.933-13.635-3.334-27.703-16.232-31.423
			c-9.73-2.806-19.881,1.081-25.971,9.011c-2.931-3.562-6.866-6.282-11.549-7.632c-12.896-3.719-26.54,4.318-30.473,17.954
			c-2.183,7.566-0.911,15.264,2.854,21.255c-5.953-2.038-12.628-0.833-17.178,3.717c-0.807,0.807-1.509,1.681-2.106,2.606
			c-6.877-6.784-17.95-6.758-24.793,0.084c-6.87,6.87-6.871,18.01,0,24.881c2.997,2.997,6.806,4.686,10.719,5.069
			c-0.539,5.084,1.229,10.482,5.26,14.514c6.87,6.871,17.709,7.172,24.208,0.673c0.499-0.499,0.947-1.029,1.366-1.576
			c-1.832,3.536-2.874,7.547-2.874,11.804c0,4.194,1.024,8.142,2.808,11.639h126.164
			C623.187,284.303,621.612,281.27,619.326,278.619z M520.807,250.167c-8.703,0-16.39,4.331-21.037,10.95
			c2.025-4.348,2.034-9.478,0.047-14.034c3.105-0.577,6.038-2.036,8.397-4.396c5.156-5.157,6.016-13.04,2.726-19.511
			c0.947,0.419,1.929,0.785,2.949,1.08c1.601,0.462,3.215,0.742,4.819,0.853c-2.657,9.452,0.344,19.17,6.987,25.528
			C524.112,250.332,522.479,250.167,520.807,250.167z"/>
		<path fill="#FDEBA9" d="M391.641,278.497c1.472,1.526,3.135,2.896,4.982,4.044c-1.469,1.474-2.74,3.14-3.782,4.959h74.536
			c1.651-2.652,2.849-5.648,3.45-8.907c2.574-13.955-6.652-27.355-20.606-29.93c-6.087-1.123-12.068,0-17.092,2.78
			c-3.562-6.562-10.158-11.593-18.346-13.104c-13.955-2.574-27.242,6.04-29.677,19.241c-0.531,2.875-0.486,5.727,0.027,8.462
			c-4.402-4.751-10.359-7.662-16.604-8.077c2.343-1.316,4.542-3.01,6.49-5.09c9.701-10.355,9.625-26.19-0.17-35.368
			c-1.216-1.139-2.526-2.122-3.904-2.95c9.575-10.361,9.01-26.523-1.303-36.185c-10.356-9.702-26.616-9.171-36.318,1.185
			c-4.232,4.517-6.516,10.157-6.888,15.887c-7.448-0.544-15.243,2.291-20.935,8.367c-9.702,10.356-9.625,26.191,0.171,35.369
			c4.87,4.562,11.224,6.603,17.576,6.246c-0.352,0.107-0.703,0.218-1.054,0.341c-13.387,4.706-20.425,19.374-15.72,32.761
			c1.212,3.447,3.097,6.458,5.437,8.971h80.183C392.448,284.571,392.321,281.53,391.641,278.497z M329.311,244.353
			c1.218-0.373,2.418-0.833,3.588-1.389c0.109,0.497,0.24,0.988,0.381,1.478C331.971,244.309,330.645,244.279,329.311,244.353z
			 M354.891,261.321c-0.003-0.01-0.008-0.019-0.011-0.029c0.019,0.001,0.037,0.003,0.056,0.003
			C354.921,261.304,354.905,261.312,354.891,261.321z"/>
		<path fill="#FDEBA9" d="M367.168,165.649c3.941,2.242,8.377,2.856,12.568,2.062c0.814,5.525,4.121,10.674,9.423,13.689
			c9.037,5.14,20.439,2.14,25.467-6.701c3.792-6.668,2.873-14.754-1.686-20.531c3.088-1.56,5.755-3.994,7.581-7.204
			c5.028-8.84,1.778-20.173-7.26-25.313c-9.036-5.139-20.438-2.14-25.466,6.701c-0.625,1.098-1.121,2.234-1.494,3.392
			c-9.021-5.047-20.579-1.629-25.872,7.677C355.114,148.767,358.131,160.51,367.168,165.649z"/>
		<path fill="#FDEBA9" d="M420.373,199.463c-7.556-3.955-16.899-1.077-20.911,6.464c-4.029,7.572-1.157,16.978,6.416,21.007
			c3.303,1.757,6.955,2.202,10.357,1.516c0.855,4.432,3.739,8.534,8.182,10.898c7.572,4.029,16.8,1.489,20.613-5.674
			c2.875-5.404,1.844-11.893-2.084-16.485c2.473-1.289,4.572-3.276,5.957-5.877c3.811-7.162,0.762-16.236-6.812-20.266
			c-7.57-4.029-16.8-1.489-20.611,5.674C421.005,197.609,420.639,198.528,420.373,199.463z"/>
	</g>
</g>
</svg>
